<svg width="24" height="24" viewBox="0 0 24 24" fill="none" xmlns="http://www.w3.org/2000/svg">
<g id="Frame" clip-path="url(#clip0_1_858)">
<path id="Vector" d="M21.3333 8.81333V20H2.66663V5.33333H4.66663V4H2.49997C2.34413 4.0026 2.19032 4.03588 2.04735 4.09794C1.90437 4.15999 1.77501 4.24961 1.66668 4.36166C1.55834 4.47371 1.47313 4.60601 1.41593 4.751C1.35873 4.89599 1.33065 5.05083 1.3333 5.20667V20.1267C1.33065 20.2825 1.35873 20.4373 1.41593 20.5823C1.47313 20.7273 1.55834 20.8596 1.66668 20.9717C1.77501 21.0837 1.90437 21.1733 2.04735 21.2354C2.19032 21.2974 2.34413 21.3307 2.49997 21.3333H21.5C21.6558 21.3307 21.8096 21.2974 21.9526 21.2354C22.0956 21.1733 22.2249 21.0837 22.3333 20.9717C22.4416 20.8596 22.5268 20.7273 22.584 20.5823C22.6412 20.4373 22.6693 20.2825 22.6666 20.1267V8.22667C22.2534 8.48669 21.8042 8.68437 21.3333 8.81333Z" fill="#1E1E1E"/>
<path id="Vector_2" d="M5.33337 9.33337H6.66671V10.6667H5.33337V9.33337Z" fill="#1E1E1E"/>
<path id="Vector_3" d="M9.33337 9.33337H10.6667V10.6667H9.33337V9.33337Z" fill="#1E1E1E"/>
<path id="Vector_4" d="M13.3334 9.33337H14.6667V10.6667H13.3334V9.33337Z" fill="#1E1E1E"/>
<path id="Vector_5" d="M17.3334 9.33337H18.6667V10.6667H17.3334V9.33337Z" fill="#1E1E1E"/>
<path id="Vector_6" d="M5.33337 12.6666H6.66671V14H5.33337V12.6666Z" fill="#1E1E1E"/>
<path id="Vector_7" d="M9.33337 12.6666H10.6667V14H9.33337V12.6666Z" fill="#1E1E1E"/>
<path id="Vector_8" d="M13.3334 12.6666H14.6667V14H13.3334V12.6666Z" fill="#1E1E1E"/>
<path id="Vector_9" d="M17.3334 12.6666H18.6667V14H17.3334V12.6666Z" fill="#1E1E1E"/>
<path id="Vector_10" d="M5.33337 16H6.66671V17.3333H5.33337V16Z" fill="#1E1E1E"/>
<path id="Vector_11" d="M9.33337 16H10.6667V17.3333H9.33337V16Z" fill="#1E1E1E"/>
<path id="Vector_12" d="M13.3334 16H14.6667V17.3333H13.3334V16Z" fill="#1E1E1E"/>
<path id="Vector_13" d="M17.3334 16H18.6667V17.3333H17.3334V16Z" fill="#1E1E1E"/>
<path id="Vector_14" d="M6.66667 6.66671C6.84348 6.66671 7.01305 6.59647 7.13807 6.47144C7.2631 6.34642 7.33333 6.17685 7.33333 6.00004V2.00004C7.33333 1.82323 7.2631 1.65366 7.13807 1.52864C7.01305 1.40361 6.84348 1.33337 6.66667 1.33337C6.48986 1.33337 6.32029 1.40361 6.19526 1.52864C6.07024 1.65366 6 1.82323 6 2.00004V6.00004C6 6.17685 6.07024 6.34642 6.19526 6.47144C6.32029 6.59647 6.48986 6.66671 6.66667 6.66671Z" fill="#1E1E1E"/>
<path id="Vector_15" d="M15 4H8.66663V5.33333H15.1866C15.0645 4.89935 15.0017 4.45083 15 4Z" fill="#1E1E1E"/>
<path id="Vector_16" d="M20 7.33329C21.8409 7.33329 23.3333 5.84091 23.3333 3.99996C23.3333 2.15901 21.8409 0.666626 20 0.666626C18.159 0.666626 16.6666 2.15901 16.6666 3.99996C16.6666 5.84091 18.159 7.33329 20 7.33329Z" fill="#1E1E1E"/>
</g>
<defs>
<clipPath id="clip0_1_858">
<rect width="24" height="24" fill="white"/>
</clipPath>
</defs>
</svg>
