<svg width="25" height="24" viewBox="0 0 25 24" fill="none" xmlns="http://www.w3.org/2000/svg">
<g id="Frame">
<path id="Vector" d="M10.2813 10C10.2813 9.80222 10.2226 9.60888 10.1127 9.44443C10.0028 9.27998 9.84666 9.15181 9.66394 9.07612C9.48121 9.00043 9.28014 8.98063 9.08616 9.01921C8.89218 9.0578 8.714 9.15304 8.57415 9.29289C8.43429 9.43274 8.33905 9.61093 8.30047 9.80491C8.26188 9.99889 8.28169 10.2 8.35737 10.3827C8.43306 10.5654 8.56123 10.7216 8.72568 10.8315C8.89013 10.9413 9.08347 11 9.28125 11C9.54647 11 9.80082 10.8946 9.98836 10.7071C10.1759 10.5196 10.2813 10.2652 10.2813 10ZM14.7813 14.06C14.6677 13.9935 14.5422 13.95 14.4118 13.9321C14.2814 13.9142 14.1488 13.9222 14.0215 13.9556C13.8942 13.9891 13.7748 14.0473 13.6701 14.127C13.5654 14.2067 13.4774 14.3062 13.4113 14.42C13.2977 14.6196 13.1334 14.7856 12.9349 14.901C12.7364 15.0165 12.5109 15.0773 12.2813 15.0773C12.0516 15.0773 11.8261 15.0165 11.6276 14.901C11.4291 14.7856 11.2648 14.6196 11.1513 14.42C11.0851 14.3062 10.9971 14.2067 10.8924 14.127C10.7877 14.0473 10.6683 13.9891 10.541 13.9556C10.4137 13.9222 10.2811 13.9142 10.1507 13.9321C10.0203 13.95 9.89479 13.9935 9.78125 14.06C9.55252 14.1919 9.38525 14.4089 9.31593 14.6637C9.24661 14.9185 9.28088 15.1904 9.41125 15.42C9.7013 15.9248 10.1194 16.3442 10.6233 16.6358C11.1272 16.9274 11.6991 17.081 12.2813 17.081C12.8635 17.081 13.4354 16.9274 13.9393 16.6358C14.4431 16.3442 14.8612 15.9248 15.1513 15.42C15.2816 15.1904 15.3159 14.9185 15.2466 14.6637C15.1773 14.4089 15.01 14.1919 14.7813 14.06ZM15.2813 9C15.0835 9 14.8901 9.05865 14.7257 9.16853C14.5612 9.27841 14.4331 9.43459 14.3574 9.61732C14.2817 9.80004 14.2619 10.0011 14.3005 10.1951C14.3391 10.3891 14.4343 10.5673 14.5741 10.7071C14.714 10.847 14.8922 10.9422 15.0862 10.9808C15.2801 11.0194 15.4812 10.9996 15.6639 10.9239C15.8467 10.8482 16.0028 10.72 16.1127 10.5556C16.2226 10.3911 16.2813 10.1978 16.2813 10C16.2813 9.73478 16.1759 9.48043 15.9884 9.29289C15.8008 9.10536 15.5465 9 15.2813 9ZM12.2813 2C10.3034 2 8.37004 2.58649 6.72555 3.6853C5.08106 4.78412 3.79934 6.3459 3.04246 8.17316C2.28558 10.0004 2.08755 12.0111 2.4734 13.9509C2.85925 15.8907 3.81166 17.6725 5.21019 19.0711C6.60871 20.4696 8.39054 21.422 10.3304 21.8079C12.2702 22.1937 14.2808 21.9957 16.1081 21.2388C17.9353 20.4819 19.4971 19.2002 20.5959 17.5557C21.6948 15.9112 22.2813 13.9778 22.2813 12C22.2813 10.6868 22.0226 9.38642 21.52 8.17316C21.0175 6.95991 20.2809 5.85752 19.3523 4.92893C18.4237 4.00035 17.3213 3.26375 16.1081 2.7612C14.8948 2.25866 13.5945 2 12.2813 2ZM12.2813 20C10.4186 20.008 8.61146 19.3658 7.17157 18.1842C5.73168 17.0025 4.74927 15.3554 4.39377 13.5269C4.03827 11.6984 4.33196 9.80322 5.22418 8.16811C6.11641 6.53299 7.55125 5.26047 9.28125 4.57C9.27097 4.71315 9.27097 4.85685 9.28125 5C9.28125 5.79565 9.59732 6.55871 10.1599 7.12132C10.7225 7.68393 11.4856 8 12.2813 8C12.5465 8 12.8008 7.89464 12.9884 7.70711C13.1759 7.51957 13.2813 7.26522 13.2813 7C13.2813 6.73478 13.1759 6.48043 12.9884 6.29289C12.8008 6.10536 12.5465 6 12.2813 6C12.016 6 11.7617 5.89464 11.5741 5.70711C11.3866 5.51957 11.2813 5.26522 11.2813 5C11.2813 4.73478 11.3866 4.48043 11.5741 4.29289C11.7617 4.10536 12.016 4 12.2813 4C14.403 4 16.4378 4.84285 17.9381 6.34315C19.4384 7.84344 20.2813 9.87827 20.2813 12C20.2813 14.1217 19.4384 16.1566 17.9381 17.6569C16.4378 19.1571 14.403 20 12.2813 20Z" fill="black"/>
</g>
</svg>
